<?xml version="1.0" encoding="utf-8"?>
<!DOCTYPE svg PUBLIC "-//W3C//DTD SVG 1.1//EN" "http://www.w3.org/Graphics/SVG/1.1/DTD/svg11.dtd">
 <svg version="1.1" id="Layer_1" xmlns="http://www.w3.org/2000/svg" xmlns:xlink="http://www.w3.org/1999/xlink" x="0px" y="0px"
     viewBox="0 0 601.7 203.41" style="enable-background:new 0 0 601.7 203.41;" xml:space="preserve">
<g>
    <path d="M146.22,135.56c32.33-0.18,47.66-0.1,79.99-0.1c0-5,0-10,0-15c-37.7,0-58.4,0-96.96,0c3.39,4.26,6.46,7.42,8.9,10.96
        l3.66,4.3"/>
    <path class="st0" d="M109.29,6.29c2.41,0,3.98,0,5.55,0c30.62,0,61.25,0.24,91.87-0.14c9.17-0.11,16.11,2.83,18.62,9.82
        c0.45,1.35,1.17,3.22,0.91,5.32c-33.12,0-69.24-0.04-102.36,0.07"/>
    <path d="M139.95,61.46c34.52,0,51.77,0,86.36,0c0,5,0,10,0,15c-34.33-0.02-51.76-0.03-86.09-0.05"/>
    <path class="st1" d="M165.17,175.46c27.39,0,34.72,0,61.04,0c0,1.21-0.36,3.02-0.78,4.31c-3.66,9.26-9.55,11.16-18.73,10.83
        c-14.11-0.51-12.26,0-26.39-0.27"/>
    <path class="st2" d="M107.97,118.16c19.63,25.17,37.71,46.92,57.36,72.12h-16.34c-19.83-25.4-31.26-40.04-51.11-65.47
        c-18.36,9.06-36.98,10.16-55.77,1.8c-14.61-6.5-25.17-17.24-31.71-31.74C-2.69,65.84,8.13,31.74,35.46,15.25
        c27.27-16.45,62.32-10,82.08,15.12C136.63,54.66,136.88,92.57,107.97,118.16z M68.06,17.29c-28.95,0.04-52.11,23.15-52.04,51.93
        c0.07,28.66,23.12,51.95,51.53,52.04c28.86,0.1,52.64-23.61,52.44-52.31C119.79,40.38,96.54,17.25,68.06,17.29z"/>
</g>
<g>
    <path d="M594.08,104.37c-3.7,0-7.39,0-11.53,0c-1.4-24.92-10.24-46.41-27.93-63.83c-17.74-17.47-39.38-25.95-64.85-26.76
        c0-3.93,0-7.76,0-11.59c3.55,0,5.79-0.15,9.92,0.15c5.99,0.38,10.19,1.69,14.6,2.89c41.63,11.28,73.19,44.84,78.85,87.67"/>
    <path d="M490.1,50.97c0-3.65,0-7.28,0-10.9c33.53-0.93,65.16,27.12,66.26,63.9c-3.62,0-7.24,0-11.03,0
        C540.73,72.16,522.44,54.33,490.1,50.97z"/>
    <path d="M490.01,90.29c0-3.81,0-7.49,0-11.18c13.76,0.62,24.48,11.03,25.59,25.25c-3.14,0-6.26,0.16-9.35-0.1
        c-0.9-0.07-2.18-1.16-2.47-2.05c-0.06-0.19-0.13-0.39-0.19-0.57C501.32,95.21,496.51,91.81,490.01,90.29z"/>
</g>
<g>
    <g>
        <path d="M541,131.26c-6.24-6.16-14.03-6.16-20.23,0c-4.73,4.69-9.46,9.38-14.11,14.15c-1.27,1.31-2.34,1.59-3.89,0.72
            c-3.06-1.67-6.32-3.02-9.26-4.85c-13.71-8.62-25.19-19.71-35.36-32.19c-5.05-6.2-9.54-12.83-12.68-20.3
            c-0.64-1.51-0.52-2.5,0.72-3.74c4.73-4.57,9.34-9.26,13.99-13.95c6.48-6.52,6.48-14.15-0.04-20.7c-3.7-3.74-7.39-7.39-11.09-11.13
            c-3.81-3.81-7.59-7.67-11.44-11.44c-6.24-6.08-14.03-6.08-20.23,0.04c-4.77,4.69-9.34,9.5-14.19,14.11
            c-4.49,4.25-6.76,9.46-7.23,15.54c-0.75,9.89,1.67,19.23,5.09,28.33c6.99,18.83,17.64,35.56,30.56,50.9
            c17.44,20.74,38.27,37.15,62.62,48.99c10.97,5.32,22.33,9.42,34.69,10.09c8.5,0.48,15.89-1.67,21.81-8.3
            c4.05-4.53,8.62-8.66,12.91-12.99c6.36-6.44,6.4-14.23,0.08-20.58C556.18,146.36,548.59,138.81,541,131.26z"/>
    </g>
</g>
<rect x="322.31" y="13.75" width="3.51" height="172.14"/>
</svg>
